<svg id="Layer_1" data-name="Layer 1" xmlns="http://www.w3.org/2000/svg" viewBox="0 0 177 154.28"><defs><style>.cls-1{fill:#ffffff;}</style></defs><path class="cls-1" d="M43.56,152.28c-1.8,4.56-.71,6.51,4.31,7.38,7,1.21,13.81.25,20.57-1.2,41.43-8.86,80.52-24,117.63-44.33,6.49-3.55,12.48-8,18.56-12.3a22.7,22.7,0,0,0,4.87-5C211.65,94,211,92,207.67,90.6a2.65,2.65,0,0,1-1.31-.94,51.89,51.89,0,0,1,6,1.43c3.28,1.18,4.4,3.65,2.48,6.54a36.32,36.32,0,0,1-7.39,8.55c-3.66,2.91-4.67,5.64-4,10.55,5.3,41.45-20.71,77.61-61.51,86.17-30.23,6.35-62.71-7.6-79.72-34.37A5.37,5.37,0,0,0,57,165.75a66.91,66.91,0,0,1-12.34-1.16c-6.55-1.37-7.62-5.07-3.26-10.11C42.07,153.7,42.84,153,43.56,152.28Zm139.55-23c0-1.6,0-2.81,0-4,0-1.84-.73-2.31-2.41-1.53-2.43,1.13-4.9,2.14-7.34,3.25-14.3,6.52-28.49,13.24-41.48,22.22-3.85,2.65-6.74,5.94-7.69,10.61a16.93,16.93,0,0,0,5.63,16.84c4.85,4.35,10.55,5.14,16.69,3.05C167.45,172.56,182.56,151.59,183.11,129.27Z" transform="translate(-38.78 -50.14)"/><path class="cls-1" d="M194.25,89.71l-19.44,3.62-.32.83c1,1.09,1.75,2.5,2.95,3.21,2.87,1.69,3.05,2.67.27,5.26-.46-.74-.92-1.43-1.32-2.15a56,56,0,0,0-91.87-9.4c-7.26,8.51-9,18.24-4.76,28.58,4.14,10.15,12,15.72,23,16.84a5.37,5.37,0,0,1,2.62.81c-3.28.84-6.52,1.87-9.84,2.5-6.44,1.23-12.91,2.29-19.39,3.28a14.8,14.8,0,0,1-4.64-.19c-1.73-.29-2.39-1.34-1.89-3.22a35.84,35.84,0,0,0,.64-4.87l-.91-.67L52.39,144.51c-8.28-29.22,5.38-73.08,47.22-89.2C138.94,40.15,179.29,60.33,194.25,89.71Z" transform="translate(-38.78 -50.14)"/><path class="cls-1" d="M139.81,88.39a6,6,0,0,1,6.3-6.1,6.17,6.17,0,0,1,6.06,6.15,6.28,6.28,0,0,1-6.23,6.27A6.14,6.14,0,0,1,139.81,88.39Z" transform="translate(-38.78 -50.14)"/><path class="cls-1" d="M134.59,84.69a3.72,3.72,0,0,1-3.67,3.63,3.65,3.65,0,0,1-3.6-3.92A3.52,3.52,0,0,1,131.08,81,3.63,3.63,0,0,1,134.59,84.69Z" transform="translate(-38.78 -50.14)"/><path class="cls-1" d="M159.25,96.67c-1.06.8-1.64,1.56-2.26,1.6s-1.54-.89-1.49-1.26a2.44,2.44,0,0,1,1.34-1.75C157.37,95.14,158.1,96,159.25,96.67Z" transform="translate(-38.78 -50.14)"/></svg>